<svg width="85" height="63" viewBox="0 0 85 63" fill="none" xmlns="http://www.w3.org/2000/svg">
<path d="M0.678445 37V30.679L13.9419 19.0668C14.9363 18.1671 15.7826 17.3445 16.481 16.5987C17.1794 15.8411 17.7121 15.0836 18.079 14.326C18.446 13.5566 18.6294 12.7221 18.6294 11.8224C18.6294 10.8163 18.4105 9.9581 17.9725 9.24787C17.5345 8.5258 16.9308 7.96946 16.1614 7.57883C15.392 7.18821 14.5101 6.9929 13.5158 6.9929C12.5096 6.9929 11.6278 7.20005 10.8702 7.61435C10.1126 8.01681 9.52078 8.60274 9.09464 9.37216C8.68034 10.1416 8.47319 11.0767 8.47319 12.1776H0.145775C0.145775 9.7036 0.70212 7.567 1.81481 5.76776C2.9275 3.96851 4.49 2.58357 6.50231 1.61293C8.52646 0.630444 10.8761 0.139203 13.5513 0.139203C16.3094 0.139203 18.7064 0.600851 20.7424 1.52415C22.7784 2.44744 24.3527 3.73769 25.4654 5.39488C26.5899 7.04024 27.1522 8.95194 27.1522 11.13C27.1522 12.5149 26.874 13.888 26.3176 15.2493C25.7613 16.6106 24.7611 18.1139 23.3169 19.7592C21.8846 21.4046 19.8487 23.3755 17.209 25.6719L12.8588 29.6847V29.9155H27.5961V37H0.678445ZM47.7023 37.8878C44.5299 37.8878 41.7955 37.1361 39.4991 35.6328C37.2027 34.1177 35.4331 31.9455 34.1902 29.1165C32.9473 26.2756 32.3318 22.8606 32.3436 18.8714C32.3554 14.8823 32.9769 11.4969 34.208 8.7152C35.4509 5.92164 37.2146 3.79687 39.4991 2.34091C41.7955 0.873105 44.5299 0.139203 47.7023 0.139203C50.8746 0.139203 53.609 0.873105 55.9054 2.34091C58.2136 3.79687 59.9892 5.92164 61.2321 8.7152C62.475 11.5088 63.0905 14.8942 63.0787 18.8714C63.0787 22.8724 62.4572 26.2933 61.2143 29.1342C59.9714 31.9751 58.2018 34.1473 55.9054 35.6506C53.6208 37.142 50.8865 37.8878 47.7023 37.8878ZM47.7023 30.6967C49.5962 30.6967 51.1291 29.732 52.301 27.8026C53.4729 25.8613 54.0529 22.8842 54.0411 18.8714C54.0411 16.2436 53.7747 14.0774 53.242 12.3729C52.7094 10.6565 51.9696 9.37808 51.0226 8.53764C50.0756 7.69721 48.9688 7.27699 47.7023 7.27699C45.8202 7.27699 44.2991 8.22988 43.1391 10.1357C41.979 12.0296 41.3931 14.9415 41.3812 18.8714C41.3694 21.5348 41.6239 23.7424 42.1447 25.4943C42.6774 27.2462 43.4232 28.5542 44.382 29.4183C45.3408 30.2706 46.4475 30.6967 47.7023 30.6967ZM74.7678 39.7273V12.4545H76.515V39.7273H74.7678ZM78.9759 21.723C78.9049 20.9418 78.5888 20.3345 78.0278 19.9013C77.4738 19.4609 76.6819 19.2408 75.6521 19.2408C74.9702 19.2408 74.4021 19.3295 73.9475 19.5071C73.493 19.6847 73.1521 19.9297 72.9248 20.2422C72.6975 20.5476 72.5803 20.8991 72.5732 21.2969C72.559 21.6236 72.6229 21.9112 72.765 22.1598C72.9141 22.4084 73.1272 22.6286 73.4042 22.8203C73.6883 23.005 74.0292 23.1683 74.4269 23.3104C74.8246 23.4524 75.2721 23.5767 75.7692 23.6832L77.6442 24.1094C78.7238 24.3438 79.6755 24.6562 80.4994 25.0469C81.3303 25.4375 82.0263 25.9027 82.5874 26.4425C83.1556 26.9822 83.5853 27.6037 83.8765 28.3068C84.1677 29.0099 84.3168 29.7983 84.3239 30.6719C84.3168 32.0497 83.9688 33.2322 83.2799 34.2195C82.591 35.2067 81.6002 35.9631 80.3076 36.4886C79.0221 37.0142 77.4702 37.277 75.6521 37.277C73.8268 37.277 72.2359 37.0036 70.8793 36.4567C69.5228 35.9098 68.4681 35.0788 67.7153 33.9638C66.9624 32.8487 66.5754 31.4389 66.554 29.7344H71.6038C71.6464 30.4375 71.8346 31.0234 72.1684 31.4922C72.5022 31.9609 72.9603 32.3161 73.5427 32.5575C74.1322 32.799 74.814 32.9197 75.5881 32.9197C76.2984 32.9197 76.9021 32.8239 77.3992 32.6321C77.9035 32.4403 78.2906 32.174 78.5604 31.8331C78.8303 31.4922 78.9688 31.1016 78.9759 30.6612C78.9688 30.2493 78.841 29.8977 78.5924 29.6065C78.3438 29.3082 77.9603 29.0526 77.4418 28.8395C76.9305 28.6193 76.2771 28.4169 75.4816 28.2322L73.2018 27.6996C71.3126 27.2663 69.8246 26.5668 68.738 25.6009C67.6513 24.6278 67.1116 23.3139 67.1187 21.6591C67.1116 20.3097 67.4738 19.1271 68.2053 18.1115C68.9369 17.0959 69.9489 16.304 71.2415 15.7358C72.5342 15.1676 74.0079 14.8835 75.6627 14.8835C77.3531 14.8835 78.8197 15.1712 80.0626 15.7464C81.3126 16.3146 82.282 17.1136 82.971 18.1435C83.6599 19.1733 84.0114 20.3665 84.0256 21.723H78.9759Z" fill="#131316"/>
<path d="M22.4881 50.3409L19.2069 62.5312H17.8795L21.1607 50.3409H22.4881ZM23.7509 61V53.3636H25.1778V54.6065H25.2722C25.4313 54.1856 25.6915 53.8575 26.0528 53.6222C26.414 53.3835 26.8466 53.2642 27.3504 53.2642C27.8608 53.2642 28.2883 53.3835 28.633 53.6222C28.981 53.8608 29.2379 54.1889 29.4036 54.6065H29.4832C29.6655 54.1989 29.9555 53.8741 30.3532 53.6321C30.7509 53.3868 31.2249 53.2642 31.7751 53.2642C32.4678 53.2642 33.0329 53.4813 33.4704 53.9155C33.9112 54.3497 34.1316 55.0043 34.1316 55.8793V61H32.6451V56.0185C32.6451 55.5014 32.5042 55.1269 32.2225 54.8949C31.9408 54.6629 31.6044 54.5469 31.2133 54.5469C30.7294 54.5469 30.3532 54.696 30.0847 54.9943C29.8163 55.2893 29.682 55.6688 29.682 56.1328V61H28.2005V55.924C28.2005 55.5097 28.0712 55.1766 27.8127 54.9247C27.5542 54.6728 27.2178 54.5469 26.8035 54.5469C26.5218 54.5469 26.2616 54.6214 26.0229 54.7706C25.7876 54.9164 25.597 55.1203 25.4512 55.3821C25.3087 55.6439 25.2374 55.9472 25.2374 56.2919V61H23.7509ZM39.3406 61.1541C38.6247 61.1541 37.9999 60.9901 37.4663 60.6619C36.9327 60.3338 36.5184 59.8748 36.2234 59.2848C35.9284 58.6948 35.7809 58.0054 35.7809 57.2166C35.7809 56.4245 35.9284 55.7318 36.2234 55.1385C36.5184 54.5452 36.9327 54.0845 37.4663 53.7564C37.9999 53.4283 38.6247 53.2642 39.3406 53.2642C40.0565 53.2642 40.6813 53.4283 41.2149 53.7564C41.7485 54.0845 42.1628 54.5452 42.4578 55.1385C42.7528 55.7318 42.9002 56.4245 42.9002 57.2166C42.9002 58.0054 42.7528 58.6948 42.4578 59.2848C42.1628 59.8748 41.7485 60.3338 41.2149 60.6619C40.6813 60.9901 40.0565 61.1541 39.3406 61.1541ZM39.3456 59.9062C39.8096 59.9062 40.194 59.7836 40.499 59.5384C40.8039 59.2931 41.0293 58.9666 41.1751 58.5589C41.3243 58.1513 41.3988 57.7022 41.3988 57.2116C41.3988 56.7244 41.3243 56.277 41.1751 55.8693C41.0293 55.4583 40.8039 55.1286 40.499 54.88C40.194 54.6314 39.8096 54.5071 39.3456 54.5071C38.8782 54.5071 38.4904 54.6314 38.1822 54.88C37.8773 55.1286 37.6502 55.4583 37.5011 55.8693C37.3553 56.277 37.2824 56.7244 37.2824 57.2116C37.2824 57.7022 37.3553 58.1513 37.5011 58.5589C37.6502 58.9666 37.8773 59.2931 38.1822 59.5384C38.4904 59.7836 38.8782 59.9062 39.3456 59.9062ZM46.046 56.4659V61H44.5595V53.3636H45.9864V54.6065H46.0808C46.2565 54.2022 46.5316 53.8774 46.9061 53.6321C47.2839 53.3868 47.7596 53.2642 48.333 53.2642C48.8533 53.2642 49.309 53.3736 49.7001 53.5923C50.0912 53.8078 50.3945 54.1293 50.6099 54.5568C50.8254 54.9844 50.9331 55.513 50.9331 56.1428V61H49.4466V56.3217C49.4466 55.7682 49.3024 55.3357 49.0141 55.0241C48.7257 54.7093 48.3296 54.5518 47.8259 54.5518C47.4812 54.5518 47.1746 54.6264 46.9061 54.7756C46.641 54.9247 46.4305 55.1435 46.2747 55.4318C46.1223 55.7169 46.046 56.0616 46.046 56.4659ZM56.4913 53.3636V54.5568H52.3202V53.3636H56.4913ZM53.4388 51.5341H54.9253V58.7578C54.9253 59.0462 54.9684 59.2633 55.0545 59.4091C55.1407 59.5516 55.2518 59.6494 55.3876 59.7024C55.5268 59.7521 55.6777 59.777 55.8401 59.777C55.9594 59.777 56.0638 59.7687 56.1533 59.7521C56.2428 59.7356 56.3124 59.7223 56.3621 59.7124L56.6305 60.9403C56.5444 60.9735 56.4217 61.0066 56.2626 61.0398C56.1036 61.0762 55.9047 61.0961 55.6661 61.0994C55.275 61.1061 54.9104 61.0365 54.5723 60.8906C54.2342 60.7448 53.9608 60.5194 53.752 60.2145C53.5432 59.9096 53.4388 59.5268 53.4388 59.0661V51.5341ZM59.7863 56.4659V61H58.2998V50.8182H59.7664V54.6065H59.8608C60.0398 54.1955 60.3132 53.8691 60.6811 53.6271C61.049 53.3852 61.5296 53.2642 62.1229 53.2642C62.6466 53.2642 63.104 53.3719 63.4951 53.5874C63.8895 53.8028 64.1944 54.1243 64.4098 54.5518C64.6286 54.9761 64.738 55.5064 64.738 56.1428V61H63.2515V56.3217C63.2515 55.7616 63.1073 55.3274 62.8189 55.0192C62.5306 54.7076 62.1295 54.5518 61.6158 54.5518C61.2645 54.5518 60.9496 54.6264 60.6712 54.7756C60.3961 54.9247 60.179 55.1435 60.0199 55.4318C59.8641 55.7169 59.7863 56.0616 59.7863 56.4659Z" fill="#595962"/>
</svg>
