<svg width="84" height="63" viewBox="0 0 84 63" fill="none" xmlns="http://www.w3.org/2000/svg">
<path d="M14.405 37.4972C11.6351 37.4972 9.17888 37.0237 7.03637 36.0767C4.90568 35.1179 3.22481 33.7981 1.99375 32.1172C0.762691 30.4363 0.135324 28.5009 0.111649 26.3111H8.95398C8.98949 27.1042 9.24399 27.8085 9.71747 28.424C10.191 29.0277 10.8361 29.5012 11.6528 29.8445C12.4696 30.1877 13.3988 30.3594 14.4405 30.3594C15.4822 30.3594 16.3995 30.1759 17.1926 29.8089C17.9975 29.4302 18.6249 28.9152 19.0747 28.2642C19.5245 27.6013 19.7435 26.8437 19.7317 25.9915C19.7435 25.1392 19.5009 24.3816 19.0037 23.7188C18.5065 23.0559 17.8022 22.541 16.8908 22.174C15.9911 21.8071 14.9258 21.6236 13.6947 21.6236H10.1614V15.3736H13.6947C14.7719 15.3736 15.7189 15.196 16.5357 14.8409C17.3643 14.4858 18.0094 13.9886 18.471 13.3494C18.9327 12.6984 19.1576 11.9527 19.1457 11.1122C19.1576 10.2955 18.9623 9.57931 18.5598 8.96378C18.1692 8.33641 17.6188 7.85109 16.9085 7.50781C16.2101 7.16454 15.3993 6.9929 14.476 6.9929C13.5054 6.9929 12.6235 7.16454 11.8304 7.50781C11.0491 7.85109 10.4277 8.33641 9.96605 8.96378C9.50441 9.59114 9.26174 10.3191 9.23807 11.1477H0.839632C0.863307 8.98153 1.467 7.07576 2.65071 5.4304C3.83442 3.7732 5.44427 2.47703 7.48026 1.5419C9.52808 0.60677 11.86 0.139203 14.476 0.139203C17.0802 0.139203 19.3706 0.594932 21.3474 1.50639C23.3242 2.41785 24.8631 3.66075 25.9639 5.23508C27.0648 6.79758 27.6152 8.56723 27.6152 10.544C27.627 12.5919 26.9582 14.2786 25.6088 15.6044C24.2712 16.9302 22.5489 17.7469 20.4419 18.0547V18.3388C23.2591 18.6702 25.3839 19.5817 26.8162 21.0732C28.2603 22.5646 28.9765 24.429 28.9646 26.6662C28.9646 28.7732 28.3432 30.6435 27.1003 32.277C25.8692 33.8987 24.1528 35.1771 21.9511 36.1122C19.7613 37.0355 17.2459 37.4972 14.405 37.4972ZM47.9434 37.4972C45.2918 37.4972 42.9363 37.0178 40.8766 36.0589C38.8169 35.1001 37.1893 33.7803 35.9938 32.0994C34.8101 30.4186 34.1945 28.4891 34.1472 26.3111H42.6699C42.7409 27.6487 43.2855 28.7259 44.3034 29.5426C45.3214 30.3475 46.5347 30.75 47.9434 30.75C49.0442 30.75 50.0208 30.5073 50.873 30.022C51.7253 29.5367 52.3941 28.8561 52.8794 27.9801C53.3648 27.0923 53.6015 26.0743 53.5897 24.9261C53.6015 23.7543 53.3588 22.7304 52.8617 21.8544C52.3764 20.9785 51.7016 20.2978 50.8375 19.8125C49.9853 19.3153 49.0028 19.0668 47.8901 19.0668C46.8366 19.0549 45.8364 19.2857 44.8894 19.7592C43.9542 20.2327 43.244 20.8778 42.7587 21.6946L34.9995 20.2386L36.5797 0.636363H59.9107V7.72088H43.8063L42.9718 16.2969H43.1848C43.7885 15.2907 44.7592 14.4621 46.0968 13.8111C47.4462 13.1482 48.9791 12.8168 50.6955 12.8168C52.8735 12.8168 54.8148 13.3258 56.5194 14.3438C58.2357 15.3499 59.5852 16.7467 60.5676 18.5341C61.562 20.3215 62.0591 22.3693 62.0591 24.6776C62.0591 27.1752 61.4673 29.3887 60.2836 31.3182C59.1117 33.2476 57.4663 34.7628 55.3475 35.8636C53.2405 36.9527 50.7724 37.4972 47.9434 37.4972ZM73.5396 39.7273V12.4545H75.2868V39.7273H73.5396ZM77.7477 21.723C77.6767 20.9418 77.3607 20.3345 76.7996 19.9013C76.2456 19.4609 75.4537 19.2408 74.4239 19.2408C73.742 19.2408 73.1739 19.3295 72.7193 19.5071C72.2648 19.6847 71.9239 19.9297 71.6966 20.2422C71.4693 20.5476 71.3521 20.8991 71.345 21.2969C71.3308 21.6236 71.3947 21.9112 71.5368 22.1598C71.6859 22.4084 71.899 22.6286 72.176 22.8203C72.4601 23.005 72.801 23.1683 73.1987 23.3104C73.5964 23.4524 74.0439 23.5767 74.5411 23.6832L76.4161 24.1094C77.4956 24.3438 78.4473 24.6562 79.2712 25.0469C80.1021 25.4375 80.7982 25.9027 81.3592 26.4425C81.9274 26.9822 82.3571 27.6037 82.6483 28.3068C82.9395 29.0099 83.0886 29.7983 83.0957 30.6719C83.0886 32.0497 82.7406 33.2322 82.0517 34.2195C81.3628 35.2067 80.372 35.9631 79.0794 36.4886C77.7939 37.0142 76.242 37.277 74.4239 37.277C72.5986 37.277 71.0077 37.0036 69.6511 36.4567C68.2946 35.9098 67.2399 35.0788 66.4871 33.9638C65.7342 32.8487 65.3472 31.4389 65.3259 29.7344H70.3756C70.4182 30.4375 70.6064 31.0234 70.9402 31.4922C71.274 31.9609 71.7321 32.3161 72.3145 32.5575C72.904 32.799 73.5858 32.9197 74.3599 32.9197C75.0702 32.9197 75.6739 32.8239 76.171 32.6321C76.6753 32.4403 77.0624 32.174 77.3322 31.8331C77.6021 31.4922 77.7406 31.1016 77.7477 30.6612C77.7406 30.2493 77.6128 29.8977 77.3642 29.6065C77.1156 29.3082 76.7321 29.0526 76.2136 28.8395C75.7023 28.6193 75.0489 28.4169 74.2534 28.2322L71.9736 27.6996C70.0844 27.2663 68.5964 26.5668 67.5098 25.6009C66.4232 24.6278 65.8834 23.3139 65.8905 21.6591C65.8834 20.3097 66.2456 19.1271 66.9771 18.1115C67.7087 17.0959 68.7207 16.304 70.0134 15.7358C71.306 15.1676 72.7797 14.8835 74.4345 14.8835C76.1249 14.8835 77.5915 15.1712 78.8344 15.7464C80.0844 16.3146 81.0538 17.1136 81.7428 18.1435C82.4317 19.1733 82.7832 20.3665 82.7974 21.723H77.7477Z" fill="white"/>
<path d="M21.8215 50.3409L18.5402 62.5312H17.2128L20.4941 50.3409H21.8215ZM23.0843 61V53.3636H24.5111V54.6065H24.6056C24.7646 54.1856 25.0248 53.8575 25.3861 53.6222C25.7474 53.3835 26.1799 53.2642 26.6837 53.2642C27.1941 53.2642 27.6217 53.3835 27.9664 53.6222C28.3144 53.8608 28.5712 54.1889 28.7369 54.6065H28.8165C28.9988 54.1989 29.2888 53.8741 29.6865 53.6321C30.0843 53.3868 30.5582 53.2642 31.1084 53.2642C31.8011 53.2642 32.3662 53.4813 32.8037 53.9155C33.2445 54.3497 33.4649 55.0043 33.4649 55.8793V61H31.9784V56.0185C31.9784 55.5014 31.8376 55.1269 31.5558 54.8949C31.2741 54.6629 30.9377 54.5469 30.5466 54.5469C30.0627 54.5469 29.6865 54.696 29.4181 54.9943C29.1496 55.2893 29.0154 55.6688 29.0154 56.1328V61H27.5338V55.924C27.5338 55.5097 27.4046 55.1766 27.146 54.9247C26.8875 54.6728 26.5511 54.5469 26.1368 54.5469C25.8551 54.5469 25.5949 54.6214 25.3563 54.7706C25.1209 54.9164 24.9304 55.1203 24.7845 55.3821C24.642 55.6439 24.5708 55.9472 24.5708 56.2919V61H23.0843ZM38.6739 61.1541C37.958 61.1541 37.3332 60.9901 36.7996 60.6619C36.266 60.3338 35.8517 59.8748 35.5567 59.2848C35.2617 58.6948 35.1143 58.0054 35.1143 57.2166C35.1143 56.4245 35.2617 55.7318 35.5567 55.1385C35.8517 54.5452 36.266 54.0845 36.7996 53.7564C37.3332 53.4283 37.958 53.2642 38.6739 53.2642C39.3898 53.2642 40.0146 53.4283 40.5482 53.7564C41.0818 54.0845 41.4961 54.5452 41.7911 55.1385C42.0861 55.7318 42.2336 56.4245 42.2336 57.2166C42.2336 58.0054 42.0861 58.6948 41.7911 59.2848C41.4961 59.8748 41.0818 60.3338 40.5482 60.6619C40.0146 60.9901 39.3898 61.1541 38.6739 61.1541ZM38.6789 59.9062C39.1429 59.9062 39.5274 59.7836 39.8323 59.5384C40.1372 59.2931 40.3626 58.9666 40.5084 58.5589C40.6576 58.1513 40.7322 57.7022 40.7322 57.2116C40.7322 56.7244 40.6576 56.277 40.5084 55.8693C40.3626 55.4583 40.1372 55.1286 39.8323 54.88C39.5274 54.6314 39.1429 54.5071 38.6789 54.5071C38.2116 54.5071 37.8238 54.6314 37.5155 54.88C37.2106 55.1286 36.9836 55.4583 36.8344 55.8693C36.6886 56.277 36.6157 56.7244 36.6157 57.2116C36.6157 57.7022 36.6886 58.1513 36.8344 58.5589C36.9836 58.9666 37.2106 59.2931 37.5155 59.5384C37.8238 59.7836 38.2116 59.9062 38.6789 59.9062ZM45.3794 56.4659V61H43.8928V53.3636H45.3197V54.6065H45.4142C45.5898 54.2022 45.8649 53.8774 46.2394 53.6321C46.6173 53.3868 47.0929 53.2642 47.6663 53.2642C48.1866 53.2642 48.6424 53.3736 49.0335 53.5923C49.4246 53.8078 49.7278 54.1293 49.9433 54.5568C50.1587 54.9844 50.2664 55.513 50.2664 56.1428V61H48.7799V56.3217C48.7799 55.7682 48.6357 55.3357 48.3474 55.0241C48.059 54.7093 47.663 54.5518 47.1592 54.5518C46.8145 54.5518 46.5079 54.6264 46.2394 54.7756C45.9743 54.9247 45.7638 55.1435 45.608 55.4318C45.4556 55.7169 45.3794 56.0616 45.3794 56.4659ZM55.8247 53.3636V54.5568H51.6535V53.3636H55.8247ZM52.7721 51.5341H54.2586V58.7578C54.2586 59.0462 54.3017 59.2633 54.3879 59.4091C54.474 59.5516 54.5851 59.6494 54.721 59.7024C54.8602 59.7521 55.011 59.777 55.1734 59.777C55.2927 59.777 55.3971 59.7687 55.4866 59.7521C55.5761 59.7356 55.6457 59.7223 55.6954 59.7124L55.9639 60.9403C55.8777 60.9735 55.7551 61.0066 55.596 61.0398C55.4369 61.0762 55.238 61.0961 54.9994 61.0994C54.6083 61.1061 54.2437 61.0365 53.9056 60.8906C53.5676 60.7448 53.2941 60.5194 53.0853 60.2145C52.8765 59.9096 52.7721 59.5268 52.7721 59.0661V51.5341ZM59.1196 56.4659V61H57.6331V50.8182H59.0997V54.6065H59.1942C59.3731 54.1955 59.6466 53.8691 60.0145 53.6271C60.3824 53.3852 60.863 53.2642 61.4562 53.2642C61.9799 53.2642 62.4373 53.3719 62.8284 53.5874C63.2228 53.8028 63.5277 54.1243 63.7432 54.5518C63.9619 54.9761 64.0713 55.5064 64.0713 56.1428V61H62.5848V56.3217C62.5848 55.7616 62.4406 55.3274 62.1523 55.0192C61.8639 54.7076 61.4629 54.5518 60.9491 54.5518C60.5978 54.5518 60.2829 54.6264 60.0045 54.7756C59.7294 54.9247 59.5123 55.1435 59.3532 55.4318C59.1975 55.7169 59.1196 56.0616 59.1196 56.4659Z" fill="#DEDEE3"/>
</svg>
