<svg width="86" height="63" viewBox="0 0 86 63" fill="none" xmlns="http://www.w3.org/2000/svg">
<path d="M0.510631 30.9631V24.1094L15.4076 0.636363H21.4978V9.94034H17.9645L9.24643 23.7543V24.0384H30.8196V30.9631H0.510631ZM18.071 37V28.8679L18.2486 25.8672V0.636363H26.4694V37H18.071ZM49.2168 0.139203C51.2054 0.139203 53.1053 0.464724 54.9164 1.11577C56.7275 1.75497 58.3432 2.77888 59.7637 4.1875C61.1841 5.58428 62.3027 7.42495 63.1195 9.70952C63.9363 11.9941 64.3447 14.7817 64.3447 18.0724C64.3565 21.1027 64.0014 23.8194 63.2793 26.2223C62.5572 28.6134 61.5215 30.6494 60.1721 32.3303C58.8345 34.0111 57.2246 35.2955 55.3425 36.1832C53.4604 37.0592 51.3593 37.4972 49.0393 37.4972C46.4824 37.4972 44.2275 37.0059 42.2743 36.0234C40.333 35.0291 38.7765 33.6915 37.6046 32.0107C36.4446 30.3298 35.7521 28.4477 35.5272 26.3643H44.1742C44.4464 27.5717 45.0205 28.4832 45.8965 29.0987C46.7724 29.7024 47.82 30.0043 49.0393 30.0043C51.2646 30.0043 52.9277 29.0395 54.0286 27.1101C55.1295 25.1806 55.6799 22.5587 55.6799 19.2443H55.4668C54.9578 20.3333 54.2357 21.2685 53.3006 22.0497C52.3773 22.831 51.3061 23.4287 50.0868 23.843C48.8676 24.2573 47.5833 24.4645 46.2339 24.4645C44.0558 24.4645 42.1323 23.9673 40.4633 22.973C38.8061 21.9787 37.504 20.6115 36.557 18.8714C35.6219 17.1314 35.1484 15.1428 35.1366 12.9055C35.1247 10.3961 35.7107 8.18253 36.8944 6.26491C38.0781 4.33546 39.7294 2.83215 41.8482 1.75497C43.967 0.665955 46.4232 0.127366 49.2168 0.139203ZM49.2701 6.88636C48.1811 6.88636 47.2104 7.14086 46.3581 7.64986C45.5177 8.15885 44.8548 8.84541 44.3695 9.70952C43.8842 10.5736 43.6474 11.5443 43.6593 12.6214C43.6711 13.6986 43.9138 14.6693 44.3873 15.5334C44.8726 16.3975 45.5295 17.084 46.3581 17.593C47.1986 18.102 48.1574 18.3565 49.2346 18.3565C50.0395 18.3565 50.7852 18.2086 51.4718 17.9126C52.1583 17.6167 52.7561 17.2083 53.2651 16.6875C53.7741 16.1548 54.1706 15.5393 54.4547 14.8409C54.7507 14.1425 54.8927 13.3968 54.8809 12.6037C54.869 11.5502 54.6205 10.5914 54.1351 9.72727C53.6498 8.86316 52.981 8.17661 52.1287 7.66761C51.2883 7.14678 50.3354 6.88636 49.2701 6.88636ZM75.8252 39.7273V12.4545H77.5723V39.7273H75.8252ZM80.0332 21.723C79.9622 20.9418 79.6462 20.3345 79.0851 19.9013C78.5311 19.4609 77.7392 19.2408 76.7094 19.2408C76.0276 19.2408 75.4594 19.3295 75.0048 19.5071C74.5503 19.6847 74.2094 19.9297 73.9821 20.2422C73.7548 20.5476 73.6377 20.8991 73.6305 21.2969C73.6163 21.6236 73.6803 21.9112 73.8223 22.1598C73.9715 22.4084 74.1845 22.6286 74.4615 22.8203C74.7456 23.005 75.0865 23.1683 75.4842 23.3104C75.882 23.4524 76.3294 23.5767 76.8266 23.6832L78.7016 24.1094C79.7811 24.3438 80.7328 24.6562 81.5567 25.0469C82.3877 25.4375 83.0837 25.9027 83.6448 26.4425C84.2129 26.9822 84.6426 27.6037 84.9338 28.3068C85.225 29.0099 85.3742 29.7983 85.3813 30.6719C85.3742 32.0497 85.0261 33.2322 84.3372 34.2195C83.6483 35.2067 82.6575 35.9631 81.3649 36.4886C80.0794 37.0142 78.5276 37.277 76.7094 37.277C74.8841 37.277 73.2932 37.0036 71.9367 36.4567C70.5801 35.9098 69.5254 35.0788 68.7726 33.9638C68.0198 32.8487 67.6327 31.4389 67.6114 29.7344H72.6611C72.7037 30.4375 72.8919 31.0234 73.2257 31.4922C73.5595 31.9609 74.0176 32.3161 74.6 32.5575C75.1895 32.799 75.8713 32.9197 76.6455 32.9197C77.3557 32.9197 77.9594 32.8239 78.4565 32.6321C78.9608 32.4403 79.3479 32.174 79.6178 31.8331C79.8877 31.4922 80.0261 31.1016 80.0332 30.6612C80.0261 30.2493 79.8983 29.8977 79.6497 29.6065C79.4011 29.3082 79.0176 29.0526 78.4992 28.8395C77.9878 28.6193 77.3344 28.4169 76.5389 28.2322L74.2591 27.6996C72.3699 27.2663 70.882 26.5668 69.7953 25.6009C68.7087 24.6278 68.1689 23.3139 68.176 21.6591C68.1689 20.3097 68.5311 19.1271 69.2627 18.1115C69.9942 17.0959 71.0063 16.304 72.2989 15.7358C73.5915 15.1676 75.0652 14.8835 76.72 14.8835C78.4104 14.8835 79.877 15.1712 81.1199 15.7464C82.3699 16.3146 83.3394 17.1136 84.0283 18.1435C84.7172 19.1733 85.0688 20.3665 85.083 21.723H80.0332Z" fill="#131316"/>
<path d="M23.1548 50.3409L19.8736 62.5312H18.5462L21.8274 50.3409H23.1548ZM24.4176 61V53.3636H25.8445V54.6065H25.9389C26.098 54.1856 26.3582 53.8575 26.7195 53.6222C27.0807 53.3835 27.5133 53.2642 28.0171 53.2642C28.5275 53.2642 28.955 53.3835 29.2997 53.6222C29.6477 53.8608 29.9046 54.1889 30.0703 54.6065H30.1499C30.3322 54.1989 30.6222 53.8741 31.0199 53.6321C31.4176 53.3868 31.8916 53.2642 32.4418 53.2642C33.1345 53.2642 33.6996 53.4813 34.1371 53.9155C34.5779 54.3497 34.7983 55.0043 34.7983 55.8793V61H33.3118V56.0185C33.3118 55.5014 33.1709 55.1269 32.8892 54.8949C32.6075 54.6629 32.2711 54.5469 31.88 54.5469C31.3961 54.5469 31.0199 54.696 30.7514 54.9943C30.483 55.2893 30.3487 55.6688 30.3487 56.1328V61H28.8672V55.924C28.8672 55.5097 28.7379 55.1766 28.4794 54.9247C28.2209 54.6728 27.8845 54.5469 27.4702 54.5469C27.1885 54.5469 26.9283 54.6214 26.6896 54.7706C26.4543 54.9164 26.2637 55.1203 26.1179 55.3821C25.9754 55.6439 25.9041 55.9472 25.9041 56.2919V61H24.4176ZM40.0073 61.1541C39.2914 61.1541 38.6666 60.9901 38.133 60.6619C37.5994 60.3338 37.1851 59.8748 36.8901 59.2848C36.5951 58.6948 36.4476 58.0054 36.4476 57.2166C36.4476 56.4245 36.5951 55.7318 36.8901 55.1385C37.1851 54.5452 37.5994 54.0845 38.133 53.7564C38.6666 53.4283 39.2914 53.2642 40.0073 53.2642C40.7232 53.2642 41.348 53.4283 41.8816 53.7564C42.4152 54.0845 42.8295 54.5452 43.1245 55.1385C43.4195 55.7318 43.567 56.4245 43.567 57.2166C43.567 58.0054 43.4195 58.6948 43.1245 59.2848C42.8295 59.8748 42.4152 60.3338 41.8816 60.6619C41.348 60.9901 40.7232 61.1541 40.0073 61.1541ZM40.0123 59.9062C40.4763 59.9062 40.8607 59.7836 41.1657 59.5384C41.4706 59.2931 41.696 58.9666 41.8418 58.5589C41.991 58.1513 42.0655 57.7022 42.0655 57.2116C42.0655 56.7244 41.991 56.277 41.8418 55.8693C41.696 55.4583 41.4706 55.1286 41.1657 54.88C40.8607 54.6314 40.4763 54.5071 40.0123 54.5071C39.5449 54.5071 39.1571 54.6314 38.8489 54.88C38.544 55.1286 38.317 55.4583 38.1678 55.8693C38.022 56.277 37.9491 56.7244 37.9491 57.2116C37.9491 57.7022 38.022 58.1513 38.1678 58.5589C38.317 58.9666 38.544 59.2931 38.8489 59.5384C39.1571 59.7836 39.5449 59.9062 40.0123 59.9062ZM46.7127 56.4659V61H45.2262V53.3636H46.6531V54.6065H46.7475C46.9232 54.2022 47.1983 53.8774 47.5728 53.6321C47.9507 53.3868 48.4263 53.2642 48.9997 53.2642C49.52 53.2642 49.9757 53.3736 50.3668 53.5923C50.7579 53.8078 51.0612 54.1293 51.2766 54.5568C51.4921 54.9844 51.5998 55.513 51.5998 56.1428V61H50.1133V56.3217C50.1133 55.7682 49.9691 55.3357 49.6808 55.0241C49.3924 54.7093 48.9963 54.5518 48.4926 54.5518C48.1479 54.5518 47.8413 54.6264 47.5728 54.7756C47.3077 54.9247 47.0972 55.1435 46.9414 55.4318C46.789 55.7169 46.7127 56.0616 46.7127 56.4659ZM57.158 53.3636V54.5568H52.9869V53.3636H57.158ZM54.1055 51.5341H55.592V58.7578C55.592 59.0462 55.6351 59.2633 55.7212 59.4091C55.8074 59.5516 55.9185 59.6494 56.0543 59.7024C56.1935 59.7521 56.3444 59.777 56.5068 59.777C56.6261 59.777 56.7305 59.7687 56.82 59.7521C56.9095 59.7356 56.9791 59.7223 57.0288 59.7124L57.2972 60.9403C57.2111 60.9735 57.0884 61.0066 56.9293 61.0398C56.7703 61.0762 56.5714 61.0961 56.3328 61.0994C55.9417 61.1061 55.5771 61.0365 55.239 60.8906C54.9009 60.7448 54.6275 60.5194 54.4187 60.2145C54.2099 59.9096 54.1055 59.5268 54.1055 59.0661V51.5341ZM60.453 56.4659V61H58.9665V50.8182H60.4331V54.6065H60.5275C60.7065 54.1955 60.9799 53.8691 61.3478 53.6271C61.7157 53.3852 62.1963 53.2642 62.7896 53.2642C63.3133 53.2642 63.7707 53.3719 64.1618 53.5874C64.5562 53.8028 64.8611 54.1243 65.0765 54.5518C65.2953 54.9761 65.4047 55.5064 65.4047 56.1428V61H63.9182V56.3217C63.9182 55.7616 63.774 55.3274 63.4856 55.0192C63.1973 54.7076 62.7962 54.5518 62.2825 54.5518C61.9312 54.5518 61.6163 54.6264 61.3379 54.7756C61.0628 54.9247 60.8457 55.1435 60.6866 55.4318C60.5308 55.7169 60.453 56.0616 60.453 56.4659Z" fill="#595962"/>
</svg>
