<svg width="129" height="120" viewBox="0 0 129 120" fill="none" xmlns="http://www.w3.org/2000/svg">
<path d="M-6 14.4822V80.6911C-6 88.6867 0.573858 95.1733 8.6899 95.1733H74.8694L98.1253 120V95.1711H113.61C121.721 95.1711 128.3 88.6844 128.3 80.6889V14.4822C128.297 6.48445 121.721 0 113.61 0H8.6899C0.573858 0 -6 6.48445 -6 14.4822ZM87.5471 47.5844C87.5471 42.4444 91.773 38.2756 96.9904 38.2756C102.208 38.2756 106.434 42.4444 106.434 47.5844C106.434 52.7289 102.208 56.8956 96.9904 56.8956C91.773 56.8956 87.5471 52.7311 87.5471 47.5844ZM51.7054 47.5844C51.7054 42.4444 55.9357 38.2756 61.1487 38.2756C66.3617 38.2756 70.5921 42.4444 70.5921 47.5844C70.5921 52.7289 66.3617 56.8956 61.1487 56.8956C55.9357 56.8956 51.7054 52.7311 51.7054 47.5844ZM15.8659 47.5844C15.8659 42.4444 20.0962 38.2756 25.3092 38.2756C30.5267 38.2756 34.7526 42.4444 34.7526 47.5844C34.7526 52.7289 30.5267 56.8956 25.3092 56.8956C20.094 56.8978 15.8659 52.7311 15.8659 47.5844Z" fill="#131316" fill-opacity="0.05"/>
</svg>
